<svg xmlns="http://www.w3.org/2000/svg" viewBox="0 0 700 200" width="100%" height="100%">
    <defs>
        <linearGradient id="formation-grad" x1="0" y1="0" x2="0" y2="1">
            <stop offset="0%" stop-color="#ffffff"/>
            <stop offset="100%" stop-color="#a6c8e3"/>
        </linearGradient>
    </defs>
    <!-- Combined path for the entire formation -->
    <path d="M 20 120 
             A 30 30 0 0 1 15 80 A 35 35 0 0 1 60 50 A 40 40 0 0 1 130 35 
             A 45 45 0 0 1 190 60 A 50 50 0 0 1 280 40 A 60 60 0 0 1 400 30 
             A 55 55 0 0 1 490 60 A 60 60 0 0 1 580 40 A 50 50 0 0 1 650 90 
             A 40 40 0 0 1 640 130 
             Z" fill="url(#formation-grad)" stroke="#ffffff" stroke-width="3"/>
    
    <!-- Highlights for the larger cloud section -->
    <path d="M 330 115 C 380 100, 480 100, 520 115 C 480 130, 380 130, 330 115 Z" fill="#ffffff" opacity="0.4"/>
    <path d="M 50 115 C 100 105, 200 105, 240 115 C 200 125, 100 125, 50 115 Z" fill="#ffffff" opacity="0.3"/>
</svg>
